<svg xmlns="http://www.w3.org/2000/svg" version="1.1" width="1000" height="1000"><circle cx="500" cy="500" r="500" fill="rgb(255, 255, 255)" stroke="" stroke-width="0" /><circle cx="500" cy="500" r="125" fill="rgb(146, 119, 229)" stroke="" stroke-width="0" /><path fill="rgb(146, 119, 229)" stroke="rgb(146, 119, 229)" stroke-width="1" d="M 380,500 A 120,120 0 0 1 560,396 L 622,287 A 245,245 0 0 0 255,500 L 380,500" /><path fill="rgb(146, 119, 229)" stroke="rgb(146, 119, 229)" stroke-width="1" d="M 574,728 A 240,240 0 0 1 265,450 L 142,424 A 365,365 0 0 0 612,847 L 574,728" /><path fill="rgb(146, 119, 229)" stroke="rgb(146, 119, 229)" stroke-width="1" d="M 388,157 A 360,360 0 0 1 767,740 L 860,824 A 485,485 0 0 0 350,38 L 388,157" /></svg>