<svg xmlns="http://www.w3.org/2000/svg" version="1.1" width="1000" height="1000"><circle cx="500" cy="500" r="500" fill="rgb(255, 255, 255)" stroke="" stroke-width="0" /><circle cx="500" cy="500" r="125" fill="rgb(174, 209, 118)" stroke="" stroke-width="0" /><path fill="rgb(174, 209, 118)" stroke="rgb(174, 209, 118)" stroke-width="1" d="M 380,500 A 120,120 0 0 1 612,458 L 730,416 A 245,245 0 0 0 255,500 L 380,500" /><path fill="rgb(174, 209, 118)" stroke="rgb(174, 209, 118)" stroke-width="1" d="M 305,358 A 240,240 0 0 1 719,402 L 833,351 A 365,365 0 0 0 204,285 L 305,358" /><path fill="rgb(174, 209, 118)" stroke="rgb(174, 209, 118)" stroke-width="1" d="M 791,711 A 360,360 0 0 1 150,587 L 29,617 A 485,485 0 0 0 892,785 L 791,711" /></svg>