<svg xmlns="http://www.w3.org/2000/svg" version="1.1" width="1000" height="1000"><circle cx="500" cy="500" r="500" fill="rgb(255, 255, 255)" stroke="" stroke-width="0" /><circle cx="500" cy="500" r="125" fill="rgb(6, 23, 168)" stroke="" stroke-width="0" /><path fill="rgb(6, 23, 168)" stroke="rgb(6, 23, 168)" stroke-width="1" d="M 462,385 A 120,120 0 1 1 419,589 L 336,682 A 245,245 0 1 0 424,266 L 462,385" /><path fill="rgb(6, 23, 168)" stroke="rgb(6, 23, 168)" stroke-width="1" d="M 305,358 A 240,240 0 0 1 694,641 L 795,714 A 365,365 0 0 0 204,285 L 305,358" /><path fill="rgb(6, 23, 168)" stroke="rgb(6, 23, 168)" stroke-width="1" d="M 388,157 A 360,360 0 1 1 425,852 L 399,974 A 485,485 0 1 0 350,38 L 388,157" /></svg>