<svg xmlns="http://www.w3.org/2000/svg" version="1.1" width="1000" height="1000"><circle cx="500" cy="500" r="500" fill="rgb(255, 255, 255)" stroke="" stroke-width="0" /><circle cx="500" cy="500" r="125" fill="rgb(30, 241, 194)" stroke="" stroke-width="0" /><path fill="rgb(30, 241, 194)" stroke="rgb(30, 241, 194)" stroke-width="1" d="M 537,385 A 120,120 0 1 1 426,594 L 349,693 A 245,245 0 1 0 575,266 L 537,385" /><path fill="rgb(30, 241, 194)" stroke="rgb(30, 241, 194)" stroke-width="1" d="M 305,641 A 240,240 0 0 1 694,358 L 795,285 A 365,365 0 0 0 204,714 L 305,641" /><path fill="rgb(30, 241, 194)" stroke="rgb(30, 241, 194)" stroke-width="1" d="M 140,500 A 360,360 0 0 1 860,499 L 985,499 A 485,485 0 0 0 15,500 L 140,500" /></svg>