<svg xmlns="http://www.w3.org/2000/svg" version="1.1" width="1000" height="1000"><circle cx="500" cy="500" r="500" fill="rgb(255, 255, 255)" stroke="" stroke-width="0" /><circle cx="500" cy="500" r="125" fill="rgb(143, 172, 39)" stroke="" stroke-width="0" /><path fill="rgb(143, 172, 39)" stroke="rgb(143, 172, 39)" stroke-width="1" d="M 380,500 A 120,120 0 0 1 479,381 L 457,258 A 245,245 0 0 0 255,500 L 380,500" /><path fill="rgb(143, 172, 39)" stroke="rgb(143, 172, 39)" stroke-width="1" d="M 425,728 A 240,240 0 0 1 410,277 L 363,161 A 365,365 0 0 0 387,847 L 425,728" /><path fill="rgb(143, 172, 39)" stroke="rgb(143, 172, 39)" stroke-width="1" d="M 611,157 A 360,360 0 0 1 512,859 L 516,984 A 485,485 0 0 0 649,38 L 611,157" /></svg>