<svg xmlns="http://www.w3.org/2000/svg" version="1.1" width="1000" height="1000"><circle cx="500" cy="500" r="500" fill="rgb(255, 255, 255)" stroke="" stroke-width="0" /><path fill="rgb(249, 95, 156)" stroke="rgb(249, 95, 156)" stroke-width="1" d="M 462,385 A 120,120 0 1 1 419,589 L 336,682 A 245,245 0 1 0 424,266 L 462,385" /><path fill="rgb(249, 95, 156)" stroke="rgb(249, 95, 156)" stroke-width="1" d="M 305,358 A 240,240 0 1 1 634,698 L 704,802 A 365,365 0 1 0 204,285 L 305,358" /><path fill="rgb(249, 95, 156)" stroke="rgb(249, 95, 156)" stroke-width="1" d="M 388,842 A 360,360 0 0 1 611,157 L 649,38 A 485,485 0 0 0 350,961 L 388,842" /></svg>