<svg xmlns="http://www.w3.org/2000/svg" version="1.1" width="1000" height="1000"><circle cx="500" cy="500" r="500" fill="rgb(255, 255, 255)" stroke="" stroke-width="0" /><path fill="rgb(102, 118, 91)" stroke="rgb(102, 118, 91)" stroke-width="1" d="M 380,500 A 120,120 0 0 1 560,396 L 622,287 A 245,245 0 0 0 255,500 L 380,500" /><path fill="rgb(102, 118, 91)" stroke="rgb(102, 118, 91)" stroke-width="1" d="M 305,641 A 240,240 0 0 1 474,261 L 461,136 A 365,365 0 0 0 204,714 L 305,641" /><path fill="rgb(102, 118, 91)" stroke="rgb(102, 118, 91)" stroke-width="1" d="M 388,842 A 360,360 0 0 1 309,194 L 242,88 A 485,485 0 0 0 350,961 L 388,842" /></svg>