<svg xmlns="http://www.w3.org/2000/svg" version="1.1" width="1000" height="1000"><circle cx="500" cy="500" r="500" fill="rgb(255, 255, 255)" stroke="" stroke-width="0" /><circle cx="500" cy="500" r="125" fill="rgb(31, 188, 248)" stroke="" stroke-width="0" /><path fill="rgb(31, 188, 248)" stroke="rgb(31, 188, 248)" stroke-width="1" d="M 380,500 A 120,120 0 0 1 612,458 L 730,416 A 245,245 0 0 0 255,500 L 380,500" /><path fill="rgb(31, 188, 248)" stroke="rgb(31, 188, 248)" stroke-width="1" d="M 425,271 A 240,240 0 0 1 574,728 L 612,847 A 365,365 0 0 0 387,152 L 425,271" /><path fill="rgb(31, 188, 248)" stroke="rgb(31, 188, 248)" stroke-width="1" d="M 208,288 A 360,360 0 1 1 750,758 L 836,848 A 485,485 0 1 0 107,214 L 208,288" /></svg>