<svg xmlns="http://www.w3.org/2000/svg" version="1.1" width="1000" height="1000"><circle cx="500" cy="500" r="500" fill="rgb(255, 255, 255)" stroke="" stroke-width="0" /><circle cx="500" cy="500" r="125" fill="rgb(44, 38, 162)" stroke="" stroke-width="0" /><path fill="rgb(44, 38, 162)" stroke="rgb(44, 38, 162)" stroke-width="1" d="M 402,570 A 120,120 0 0 1 567,400 L 637,296 A 245,245 0 0 0 301,644 L 402,570" /><path fill="rgb(44, 38, 162)" stroke="rgb(44, 38, 162)" stroke-width="1" d="M 305,641 A 240,240 0 0 1 558,267 L 588,145 A 365,365 0 0 0 204,714 L 305,641" /><path fill="rgb(44, 38, 162)" stroke="rgb(44, 38, 162)" stroke-width="1" d="M 140,500 A 360,360 0 0 1 775,268 L 871,188 A 485,485 0 0 0 15,500 L 140,500" /></svg>