<svg xmlns="http://www.w3.org/2000/svg" version="1.1" width="1000" height="1000"><circle cx="500" cy="500" r="500" fill="rgb(255, 255, 255)" stroke="" stroke-width="0" /><circle cx="500" cy="500" r="125" fill="rgb(37, 46, 52)" stroke="" stroke-width="0" /><path fill="rgb(37, 46, 52)" stroke="rgb(37, 46, 52)" stroke-width="1" d="M 537,614 A 120,120 0 0 1 455,611 L 408,727 A 245,245 0 0 0 575,733 L 537,614" /><path fill="rgb(37, 46, 52)" stroke="rgb(37, 46, 52)" stroke-width="1" d="M 260,500 A 240,240 0 0 1 541,263 L 563,140 A 365,365 0 0 0 135,500 L 260,500" /><path fill="rgb(37, 46, 52)" stroke="rgb(37, 46, 52)" stroke-width="1" d="M 791,711 A 360,360 0 0 1 342,823 L 287,935 A 485,485 0 0 0 892,785 L 791,711" /></svg>