<svg xmlns="http://www.w3.org/2000/svg" version="1.1" width="1000" height="1000"><circle cx="500" cy="500" r="500" fill="rgb(255, 255, 255)" stroke="" stroke-width="0" /><path fill="rgb(41, 156, 173)" stroke="rgb(41, 156, 173)" stroke-width="1" d="M 402,570 A 120,120 0 0 1 413,416 L 323,329 A 245,245 0 0 0 301,644 L 402,570" /><path fill="rgb(41, 156, 173)" stroke="rgb(41, 156, 173)" stroke-width="1" d="M 425,728 A 240,240 0 0 1 410,277 L 363,161 A 365,365 0 0 0 387,847 L 425,728" /><path fill="rgb(41, 156, 173)" stroke="rgb(41, 156, 173)" stroke-width="1" d="M 208,288 A 360,360 0 0 1 858,537 L 982,550 A 485,485 0 0 0 107,214 L 208,288" /></svg>