<svg xmlns="http://www.w3.org/2000/svg" version="1.1" width="1000" height="1000"><circle cx="500" cy="500" r="500" fill="rgb(255, 255, 255)" stroke="" stroke-width="0" /><circle cx="500" cy="500" r="125" fill="rgb(53, 201, 196)" stroke="" stroke-width="0" /><path fill="rgb(53, 201, 196)" stroke="rgb(53, 201, 196)" stroke-width="1" d="M 402,429 A 120,120 0 0 1 615,533 L 735,567 A 245,245 0 0 0 301,355 L 402,429" /><path fill="rgb(53, 201, 196)" stroke="rgb(53, 201, 196)" stroke-width="1" d="M 260,500 A 240,240 0 0 1 725,417 L 842,375 A 365,365 0 0 0 135,500 L 260,500" /><path fill="rgb(53, 201, 196)" stroke="rgb(53, 201, 196)" stroke-width="1" d="M 791,711 A 360,360 0 0 1 171,646 L 56,697 A 485,485 0 0 0 892,785 L 791,711" /></svg>